<?xml version="1.0" encoding="utf-8"?>
<!-- Generator: Adobe Illustrator 28.1.0, SVG Export Plug-In . SVG Version: 6.00 Build 0)  -->
<svg version="1.1" xmlns="http://www.w3.org/2000/svg" xmlns:xlink="http://www.w3.org/1999/xlink" x="0px" y="0px"
	 viewBox="0 0 500 500" style="enable-background:new 0 0 500 500;" xml:space="preserve">
<style type="text/css">
	.st0{display:none;}
	.st1{display:inline;}
	.st2{fill:#FFCE06;}
	.st3{clip-path:url(#SVGID_00000134226997444116979340000002088609532167313024_);fill:#010101;}
	.st4{fill:#C12038;}
	.st5{fill:#FFFFFF;}
	.st6{fill:#010101;}
	.st7{clip-path:url(#SVGID_00000109018501604700352590000009933534986948480678_);}
	.st8{clip-path:url(#SVGID_00000037691609277851010130000007209064911866852747_);}
	.st9{clip-path:url(#SVGID_00000098189736498157472000000017188976700334696611_);fill:#010101;}
	.st10{clip-path:url(#SVGID_00000057829951335739834500000011470849729795187109_);fill:#010101;}
</style>
<g id="Layer_1" class="st0">
	<g class="st1">
		<g>
			<polygon class="st2" points="214.97,32.57 219.24,27.1 226.48,26.22 231.94,30.51 268.03,30.51 273.5,26.22 280.72,27.1 
				285.01,32.56 320.06,41.2 326.39,38.34 333.19,40.93 336.04,47.27 367.97,64.01 374.79,62.77 380.77,66.89 382.03,73.74 
				409.06,97.66 415.98,98.1 420.79,103.53 420.38,110.47 440.86,140.13 447.49,142.2 450.88,148.65 448.82,155.27 461.62,189.03 
				467.58,192.62 469.31,199.68 465.72,205.62 470.06,241.45 474.97,246.36 474.97,253.66 470.06,258.55 465.72,294.35 
				469.32,300.29 467.59,307.37 461.64,310.94 448.84,344.7 450.9,351.33 447.51,357.79 440.89,359.84 420.38,389.54 420.79,396.49 
				415.98,401.92 409.06,402.33 382.06,426.25 380.81,433.09 374.83,437.23 368,435.96 336.03,452.73 333.19,459.08 326.39,461.66 
				320.05,458.8 285.04,467.45 280.76,472.91 273.54,473.78 268.08,469.49 231.97,469.49 226.51,473.78 219.29,472.91 
				215.01,467.45 179.95,458.8 173.63,461.66 166.83,459.08 163.97,452.73 132.05,435.99 125.22,437.25 119.23,433.1 117.98,426.27 
				90.95,402.33 84.03,401.92 79.2,396.49 79.61,389.54 59.13,359.89 52.5,357.82 49.12,351.37 51.18,344.73 38.38,310.98 
				32.44,307.4 30.69,300.32 34.28,294.4 29.93,258.55 25.02,253.66 25.02,246.36 29.93,241.45 34.28,205.67 30.68,199.72 
				32.43,192.65 38.37,189.06 51.17,155.3 49.1,148.68 52.48,142.23 59.11,140.16 79.62,110.47 79.2,103.53 84.03,98.1 90.95,97.66 
				117.94,73.75 119.19,66.92 125.18,62.79 132.01,64.05 163.98,47.27 166.83,40.93 173.63,38.34 179.95,41.2 			"/>
			<g>
				<defs>
					<path id="SVGID_1_" d="M250.01,475C374.27,475,475,374.27,475,250c0-124.25-100.73-225-224.99-225C125.74,25,25,125.75,25,250
						C25,374.27,125.74,475,250.01,475z"/>
				</defs>
				<clipPath id="SVGID_00000053524492446779794900000002195237811306323900_">
					<use xlink:href="#SVGID_1_"  style="overflow:visible;"/>
				</clipPath>
				<path style="clip-path:url(#SVGID_00000053524492446779794900000002195237811306323900_);fill:#010101;" d="M273.87,24.36
					L250.01,160L226.14,24.36 M280.86,25.2l-9.3,137.41l55.63-125.99 M333.73,39.1l-41.9,131.21l84.16-109.03 M381.77,65.29
					l-72.08,117.35l107.79-85.69 M422.13,102.18l-98.06,96.71l125.18-57.43 M452.51,147.68l-118.35,70.39l135.27-25.78
					 M471.13,199.13l-131.77,40.04l137.52,7.33 M476.88,253.51l-137.52,7.34l131.77,40.04 M469.44,307.7l-135.27-25.78l118.35,70.42
					 M449.25,358.57l-125.18-57.43l98.06,96.69 M417.49,403.08l-107.79-85.72l72.08,117.36 M375.99,438.73l-84.16-109.02l41.9,131.2
					 M273.87,475.64L250.01,340l-23.87,135.64 M219.15,474.81l9.3-137.42l-55.63,125.98 M166.28,460.9l41.9-131.2l-84.16,109.02
					 M118.23,434.72l72.1-117.36L82.51,403.08 M77.87,397.83l98.07-96.69L50.76,358.57 M47.49,352.34l118.36-70.42L30.56,307.7
					 M28.87,300.89l131.78-40.04l-137.53-7.34 M23.12,246.49l137.53-7.33L28.87,199.13 M30.56,192.29l135.29,25.78L47.49,147.68
					 M50.76,141.45l125.19,57.43l-98.07-96.71 M82.51,96.94l107.82,85.69l-72.1-117.35 M124.02,61.29l84.16,109.03L166.28,39.1
					 M172.82,36.62l55.63,125.99l-9.3-137.41 M327.19,463.37l-55.63-125.98l9.3,137.42"/>
			</g>
			<g>
				<path class="st4" d="M280.86,280.84c-2.54,2.59-6.06,4.19-9.96,4.19h-8.19c-4.58,0-8.66,2.22-11.2,5.64h-3.02
					c-2.53-3.43-6.61-5.64-11.2-5.64h-8.18c-7.7,0-13.93-6.23-13.93-13.93v-55.93"/>
				<path class="st5" d="M215.18,215.17h69.65v55.93c0,3.82-1.51,7.23-3.97,9.74"/>
				<path class="st6" d="M288.47,270.92c0,9.69-7.87,17.54-17.57,17.54h-8.19c-4.3,0-7.99,2.63-9.57,6.35h-6.28
					c-1.57-3.72-5.26-6.35-9.57-6.35h-8.18c-9.7,0-17.57-7.85-17.57-17.54v-59.39h76.92V270.92z M281.29,218.74h-62.56v52.18
					c0,5.69,4.65,10.36,10.39,10.36h8.18c4.99,0,9.41,2.09,12.6,5.42h0.22c3.2-3.33,7.61-5.42,12.6-5.42h8.19
					c5.74,0,10.39-4.67,10.39-10.36V218.74z"/>
			</g>
		</g>
	</g>
</g>
<g id="Layer_2" class="st0">
	<g class="st1">
		<defs>
			<polygon id="SVGID_00000140707723731479616930000006366060104902542500_" points="500,500 0,500 0,0 			"/>
		</defs>
		<clipPath id="SVGID_00000038395218487110493710000006001711653494093730_">
			<use xlink:href="#SVGID_00000140707723731479616930000006366060104902542500_"  style="overflow:visible;"/>
		</clipPath>
		<g style="clip-path:url(#SVGID_00000038395218487110493710000006001711653494093730_);">
			<defs>
				<polygon id="SVGID_00000176758112472497208450000008072245058703506333_" points="0.49,0.72 500.49,0.72 500.49,500.72 				"/>
			</defs>
			<clipPath id="SVGID_00000039103334462624828550000014736058182843070864_">
				<use xlink:href="#SVGID_00000176758112472497208450000008072245058703506333_"  style="overflow:visible;"/>
			</clipPath>
			<g style="clip-path:url(#SVGID_00000039103334462624828550000014736058182843070864_);">
				<polygon class="st2" points="215.46,33.29 219.73,27.82 226.96,26.94 232.42,31.23 268.52,31.23 273.99,26.94 281.2,27.82 
					285.49,33.28 320.54,41.93 326.87,39.07 333.67,41.65 336.52,47.99 368.45,64.74 375.28,63.49 381.26,67.61 382.51,74.46 
					409.54,98.38 416.46,98.82 421.27,104.25 420.86,111.19 441.34,140.85 447.97,142.92 451.37,149.37 449.3,155.99 462.1,189.75 
					468.06,193.34 469.79,200.41 466.21,206.34 470.54,242.17 475.45,247.08 475.45,254.38 470.54,259.27 466.21,295.07 
					469.8,301.01 468.07,308.09 462.12,311.66 449.32,345.42 451.38,352.05 447.99,358.51 441.37,360.56 420.86,390.26 
					421.27,397.21 416.46,402.64 409.54,403.05 382.55,426.97 381.29,433.81 375.32,437.95 368.48,436.68 336.51,453.45 
					333.67,459.8 326.87,462.38 320.54,459.52 285.53,468.17 281.24,473.64 274.02,474.5 268.56,470.21 232.46,470.21 226.99,474.5 
					219.77,473.64 215.49,468.17 180.44,459.52 174.11,462.38 167.31,459.8 164.45,453.45 132.53,436.71 125.7,437.97 
					119.71,433.82 118.46,426.99 91.43,403.05 84.51,402.64 79.68,397.21 80.09,390.26 59.62,360.61 52.98,358.54 49.6,352.1 
					51.67,345.46 38.86,311.7 32.92,308.12 31.18,301.04 34.77,295.12 30.41,259.27 25.51,254.38 25.51,247.08 30.41,242.17 
					34.76,206.39 31.16,200.44 32.91,193.37 38.85,189.78 51.65,156.03 49.58,149.4 52.96,142.96 59.59,140.88 80.1,111.19 
					79.68,104.25 84.51,98.82 91.43,98.38 118.43,74.48 119.67,67.64 125.67,63.51 132.49,64.77 164.46,47.99 167.31,41.65 
					174.11,39.07 180.44,41.93 				"/>
				<g>
					<defs>
						<path id="SVGID_00000160158339679666881880000009687514324107041456_" d="M250.49,475.72c124.26,0,224.99-100.74,224.99-225
							c0-124.25-100.73-225-224.99-225c-124.27,0-225.01,100.76-225.01,225C25.48,374.99,126.22,475.72,250.49,475.72z"/>
					</defs>
					<clipPath id="SVGID_00000053537589424602478720000004934586628956546484_">
						<use xlink:href="#SVGID_00000160158339679666881880000009687514324107041456_"  style="overflow:visible;"/>
					</clipPath>
					<path style="clip-path:url(#SVGID_00000053537589424602478720000004934586628956546484_);fill:#010101;" d="M274.35,25.08
						l-23.86,135.64L226.62,25.08 M281.34,25.92l-9.3,137.41l55.63-125.99 M334.21,39.83l-41.9,131.21l84.16-109.03 M382.26,66.01
						l-72.08,117.35l107.79-85.69 M422.62,102.9l-98.06,96.71l125.18-57.43 M452.99,148.4l-118.35,70.39l135.27-25.78
						 M471.62,199.85l-131.77,40.04l137.52,7.33 M477.36,254.23l-137.52,7.34l131.77,40.04 M469.92,308.42l-135.27-25.78
						l118.35,70.42 M449.73,359.29l-125.18-57.43l98.06,96.69 M417.97,403.8l-107.79-85.72l72.08,117.36 M376.48,439.45
						l-84.16-109.02l41.9,131.2 M274.35,476.36l-23.86-135.64l-23.87,135.64 M219.64,475.53l9.3-137.42l-55.63,125.98
						 M166.76,461.63l41.9-131.2l-84.16,109.02 M118.71,435.44l72.1-117.36L82.99,403.8 M78.36,398.55l98.07-96.69L51.24,359.29
						 M47.97,353.06l118.36-70.42L31.04,308.42 M29.36,301.61l131.78-40.04l-137.53-7.34 M23.61,247.22l137.53-7.33L29.36,199.85
						 M31.04,193.01l135.29,25.78L47.97,148.4 M51.24,142.17l125.19,57.43L78.36,102.9 M82.99,97.66l107.82,85.69l-72.1-117.35
						 M124.51,62.01l84.16,109.03l-41.9-131.21 M173.31,37.35l55.63,125.99l-9.3-137.41 M327.67,464.09l-55.63-125.98l9.3,137.42"/>
				</g>
				<g>
					<path class="st4" d="M281.34,281.56c-2.54,2.59-6.06,4.19-9.96,4.19h-8.19c-4.58,0-8.66,2.22-11.2,5.64h-3.02
						c-2.53-3.43-6.61-5.64-11.2-5.64h-8.18c-7.7,0-13.93-6.23-13.93-13.93v-55.93"/>
					<path class="st5" d="M215.66,215.89h69.65v55.93c0,3.82-1.51,7.23-3.97,9.74"/>
					<path class="st6" d="M288.95,271.64c0,9.69-7.87,17.54-17.57,17.54h-8.19c-4.3,0-7.99,2.63-9.57,6.35h-6.28
						c-1.57-3.72-5.26-6.35-9.57-6.35h-8.18c-9.7,0-17.57-7.85-17.57-17.54v-59.39h76.92V271.64z M281.77,219.46h-62.56v52.18
						c0,5.69,4.65,10.36,10.39,10.36h8.18c4.99,0,9.41,2.09,12.6,5.42h0.22c3.2-3.33,7.61-5.42,12.6-5.42h8.19
						c5.74,0,10.39-4.67,10.39-10.36V219.46z"/>
				</g>
			</g>
		</g>
	</g>
</g>
<g id="Layer_4">
	<g>
		<polygon class="st2" points="214.97,32.57 219.24,27.1 226.48,26.22 231.94,30.51 268.03,30.51 273.5,26.22 280.72,27.1 
			285.01,32.56 320.06,41.21 326.39,38.35 333.19,40.93 336.04,47.27 367.97,64.02 374.79,62.77 380.77,66.89 382.03,73.74 
			409.06,97.66 415.98,98.1 420.79,103.53 420.38,110.47 440.86,140.13 447.49,142.2 450.88,148.65 448.82,155.27 461.62,189.03 
			467.58,192.62 469.31,199.68 465.72,205.62 470.06,241.45 474.97,246.36 474.97,253.66 470.06,258.55 465.72,294.35 
			469.32,300.29 467.59,307.37 461.64,310.94 448.84,344.7 450.9,351.32 447.51,357.79 440.89,359.84 420.38,389.54 420.79,396.49 
			415.98,401.92 409.06,402.33 382.06,426.25 380.81,433.08 374.83,437.23 368,435.96 336.03,452.73 333.19,459.08 326.39,461.65 
			320.05,458.8 285.04,467.45 280.76,472.91 273.54,473.78 268.08,469.48 231.97,469.48 226.51,473.78 219.29,472.91 215.01,467.45 
			179.95,458.8 173.63,461.65 166.83,459.08 163.97,452.73 132.05,435.99 125.22,437.24 119.23,433.1 117.98,426.26 90.95,402.33 
			84.03,401.92 79.2,396.49 79.61,389.54 59.13,359.89 52.5,357.82 49.12,351.37 51.18,344.73 38.38,310.97 32.44,307.4 
			30.69,300.32 34.28,294.4 29.93,258.55 25.02,253.66 25.02,246.36 29.93,241.45 34.28,205.67 30.68,199.72 32.43,192.65 
			38.37,189.06 51.17,155.3 49.1,148.68 52.48,142.23 59.11,140.16 79.62,110.47 79.2,103.53 84.03,98.1 90.95,97.66 117.94,73.76 
			119.19,66.92 125.18,62.79 132.01,64.05 163.98,47.27 166.83,40.93 173.63,38.35 179.95,41.21 		"/>
		<g>
			<defs>
				<path id="SVGID_00000132059952974051836480000013434556597757079427_" d="M250.01,475C374.27,475,475,374.26,475,250
					c0-124.25-100.73-225-224.99-225C125.74,25,25,125.76,25,250C25,374.26,125.74,475,250.01,475z"/>
			</defs>
			<clipPath id="SVGID_00000049925176535220048600000012367051436181410434_">
				<use xlink:href="#SVGID_00000132059952974051836480000013434556597757079427_"  style="overflow:visible;"/>
			</clipPath>
			<path style="clip-path:url(#SVGID_00000049925176535220048600000012367051436181410434_);fill:#010101;" d="M273.87,24.36
				L250.01,160L226.14,24.36 M280.86,25.2l-9.3,137.41l55.63-125.99 M333.73,39.11l-41.9,131.21l84.16-109.03 M381.77,65.29
				l-72.08,117.34l107.79-85.69 M422.13,102.18l-98.06,96.71l125.18-57.43 M452.51,147.68l-118.35,70.39l135.27-25.78
				 M471.13,199.13l-131.77,40.04l137.52,7.33 M476.88,253.51l-137.52,7.34l131.77,40.04 M469.44,307.7l-135.27-25.78l118.35,70.42
				 M449.25,358.57l-125.18-57.43l98.06,96.69 M417.49,403.08l-107.79-85.72l72.08,117.36 M375.99,438.73l-84.16-109.02l41.9,131.2
				 M273.87,475.64L250.01,340l-23.87,135.64 M219.15,474.8l9.3-137.41l-55.63,125.98 M166.28,460.9l41.9-131.2l-84.16,109.02
				 M118.23,434.72l72.1-117.36L82.51,403.08 M77.87,397.83l98.07-96.69L50.76,358.57 M47.49,352.34l118.36-70.42L30.56,307.7
				 M28.87,300.89l131.78-40.04l-137.53-7.34 M23.12,246.49l137.53-7.33L28.87,199.13 M30.56,192.29l135.29,25.78L47.49,147.68
				 M50.76,141.45l125.19,57.43l-98.07-96.71 M82.51,96.94l107.82,85.69l-72.1-117.34 M124.02,61.29l84.16,109.03l-41.9-131.21
				 M172.82,36.63l55.63,125.99l-9.3-137.41 M327.19,463.37l-55.63-125.98l9.3,137.41"/>
		</g>
		<g>
			<path class="st4" d="M280.86,280.84c-2.54,2.59-6.06,4.19-9.96,4.19h-8.19c-4.58,0-8.66,2.22-11.2,5.64h-3.02
				c-2.53-3.43-6.61-5.64-11.2-5.64h-8.18c-7.7,0-13.93-6.23-13.93-13.93v-55.93"/>
			<path class="st5" d="M215.18,215.17h69.65v55.93c0,3.82-1.51,7.23-3.97,9.74"/>
			<path class="st6" d="M288.47,270.92c0,9.69-7.87,17.54-17.57,17.54h-8.19c-4.3,0-7.99,2.63-9.57,6.35h-6.28
				c-1.57-3.72-5.26-6.35-9.57-6.35h-8.18c-9.7,0-17.57-7.85-17.57-17.54v-59.39h76.92V270.92z M281.29,218.74h-62.56v52.18
				c0,5.69,4.65,10.36,10.39,10.36h8.18c4.99,0,9.41,2.09,12.6,5.42h0.22c3.2-3.33,7.61-5.42,12.6-5.42h8.19
				c5.74,0,10.39-4.67,10.39-10.36V218.74z"/>
		</g>
	</g>
</g>
</svg>
